<?xml version="1.0" encoding="iso-8859-1"?>
<!-- Generator: Adobe Illustrator 19.0.0, SVG Export Plug-In . SVG Version: 6.00 Build 0)  -->
<svg version="1.1" id="Layer_1" xmlns="http://www.w3.org/2000/svg" xmlns:xlink="http://www.w3.org/1999/xlink" x="0px" y="0px"
	 viewBox="0 0 512 512" style="enable-background:new 0 0 512 512;" xml:space="preserve">
<g>
	<g>
		<g>
			<path d="M125.916,406.199c0,3.151,2.568,5.732,5.722,5.732h168.11v-11.456h-168.11
				C128.484,400.477,125.916,403.055,125.916,406.199z"/>
			<path d="M268.846,353.924H131.638c-3.151,0-5.722,2.58-5.722,5.722c0,3.151,2.568,5.732,5.722,5.732h168.11v-4.076h-10.89
				C281.334,361.304,274.301,358.591,268.846,353.924z"/>
			<rect x="296.09" y="54.967" width="33.587" height="77.65"/>
			<path d="M86.543,443.979V275.324c0-6.295,5.164-11.443,11.448-11.443h213.885l60.493-60.506
				c5.865-5.844,13.594-9.027,21.803-9.027c8.22,0,15.956,3.195,21.773,9.009l41.935,41.925v-117.12
				c0-4.38-0.829-8.835-2.611-13.143c-1.792-4.298-4.339-8.036-7.452-11.136l-77.012-77.013c-3.103-3.103-6.838-5.66-11.139-7.442
				c-4.311-1.779-8.763-2.619-13.143-2.619H34.348c-8.794,0-17.59,3.359-24.284,10.063C3.348,33.576,0,42.367,0,51.15v389.197
				c0,8.794,3.348,17.585,10.063,24.287c6.694,6.705,15.491,10.053,24.284,10.053h265.4v-19.264H97.992
				C91.707,455.423,86.543,450.275,86.543,443.979z M111.913,48.867c0-2.936,1.111-5.865,3.351-8.097
				c2.237-2.243,5.171-3.359,8.087-3.359h211.167c2.929,0,5.865,1.116,8.097,3.359c2.232,2.232,3.338,5.158,3.338,8.097v89.851
				c0,2.936-1.106,5.865-3.338,8.097s-5.171,3.359-8.097,3.359H123.351c-2.916,0-5.85-1.126-8.087-3.359
				c-2.24-2.232-3.351-5.158-3.351-8.097V48.867z M34.348,455.423c-8.33,0-15.084-6.748-15.084-15.078
				c0-8.323,6.751-15.068,15.084-15.068c8.317,0,15.073,6.746,15.073,15.068C49.418,448.677,42.662,455.423,34.348,455.423z"/>
			<path d="M125.916,313.094c0,3.151,2.568,5.732,5.722,5.732h128.691c1.518-3.715,3.781-7.176,6.738-10.133l1.311-1.313h-136.74
				C128.484,307.38,125.916,309.951,125.916,313.094z"/>
			<path d="M508.331,321.642L403.013,216.326c-2.26-2.263-5.384-3.666-8.842-3.666s-6.582,1.403-8.855,3.666L280,321.642
				c-3.469,3.469-4.698,8.822-2.703,13.632c1.984,4.813,6.653,7.721,11.558,7.721h29.212v139.697c0,3.192,1.226,6.397,3.666,8.832
				c2.445,2.447,5.64,3.666,8.842,3.666h127.181c3.203,0,6.408-1.219,8.852-3.666c2.437-2.435,3.666-5.64,3.666-8.832V342.995
				h29.212c4.915,0,9.559-2.908,11.558-7.721C513.039,330.464,511.803,325.111,508.331,321.642z"/>
		</g>
	</g>
</g>
<g>
</g>
<g>
</g>
<g>
</g>
<g>
</g>
<g>
</g>
<g>
</g>
<g>
</g>
<g>
</g>
<g>
</g>
<g>
</g>
<g>
</g>
<g>
</g>
<g>
</g>
<g>
</g>
<g>
</g>
</svg>
