<svg viewBox="0 0 30 30" xmlns="http://www.w3.org/2000/svg"><path d="M4.775 11c-.83 0-1.535.61-1.724 1.422L.04 25.352c-.094.406-.026.826.206 1.142.232.316.624.506 1.04.506h23.94c.828 0 1.534-.61 1.723-1.422l3.01-12.93c.094-.406.026-.826-.206-1.142-.232-.316-.624-.506-1.04-.506zm0 1h23.94c.346 0 .322.225.27.422l-3.01 12.93c-.08.336-.475.648-.75.648H1.285c-.316 0-.332-.187-.27-.422l3.01-12.93c.078-.333.476-.648.75-.648zM1.5 3C.678 3 0 3.678 0 4.5v14c-.01.676 1.01.676 1 0v-14c0-.286.214-.5.5-.5h6.793l3.853 3.854c.094.093.22.146.354.146h13c.286 0 .5.214.5.5v1c-.01.676 1.01.676 1 0v-1c0-.822-.678-1.5-1.5-1.5H12.707L8.854 3.146C8.76 3.053 8.634 3 8.5 3z"/></svg>