<?xml version="1.0" encoding="iso-8859-1"?>
<!-- Generator: Adobe Illustrator 19.1.0, SVG Export Plug-In . SVG Version: 6.00 Build 0)  -->
<svg version="1.1" id="Capa_1" xmlns="http://www.w3.org/2000/svg" xmlns:xlink="http://www.w3.org/1999/xlink" x="0px" y="0px"
	 viewBox="0 0 311.094 311.094" style="enable-background:new 0 0 311.094 311.094;" xml:space="preserve">
<g>
	<path style="fill:#231F20;" d="M174.04,311.076h-39.05c-8.188,0-15.122-5.876-16.463-13.958l-4.588-28.18
		c-2.082-0.759-4.147-1.588-6.176-2.453L85.07,283.761c-6.282,4.764-15.828,4.288-21.581-1.165L35.15,255.757
		c-5.629-5.347-6.811-14.064-2.806-20.716l15.758-26.186c-1.853-3.882-3.512-7.888-4.941-11.964l-30.068-6.617
		C5.364,188.562,0,181.857,0,173.969l0.018-39.05c0.018-8.223,5.911-15.14,13.993-16.446l30.651-4.994
		c1.218-3.07,2.576-6.105,4.041-9.07l-16.852-27.58c-4.059-6.635-2.929-15.334,2.665-20.716L62.731,29.08
		c5.664-5.505,15.158-6.105,21.545-1.306l25.657,19.269c1.2-0.476,2.4-0.935,3.635-1.376l4.976-31.692
		c1.323-8.082,8.258-13.958,16.446-13.958h39.05c7.782,0,14.628,5.505,16.287,13.111l7.147,32.521
		c1.112,0.406,2.206,0.794,3.3,1.235l27.474-18.652c6.335-4.27,15.299-3.564,20.84,1.694l28.357,26.839
		c5.982,5.664,6.952,14.699,2.312,21.492l-17.54,25.816c1.553,3.106,2.965,6.282,4.235,9.511l30.668,5.011
		c8.099,1.323,13.975,8.241,13.975,16.446l-0.018,39.05c0,7.782-5.523,14.628-13.111,16.269l-30.068,6.582
		c-1.288,3.688-2.753,7.288-4.394,10.782l16.746,24.333c4.641,6.758,3.723,15.793-2.188,21.475l-28.18,27.033
		c-5.523,5.311-14.469,6.07-20.84,1.818l-24.563-16.446c-2.523,1.129-5.117,2.188-7.799,3.159l-6.335,28.886
		C188.668,305.571,181.822,311.076,174.04,311.076z M137.213,291.807h34.744l7.058-32.133c0.741-3.37,3.229-6.088,6.511-7.129
		c5.347-1.676,10.464-3.706,15.369-6.211c3.123-1.588,6.864-1.359,9.74,0.582l27.386,18.334l25.075-24.051l-18.704-27.174
		c-2.029-2.964-2.259-6.794-0.565-9.97c3-5.647,5.488-11.717,7.394-18.052c1.006-3.353,3.741-5.894,7.164-6.635l33.403-7.323
		l0.018-34.744l-34.039-5.576c-3.512-0.582-6.423-3.053-7.57-6.423c-2.047-6.035-4.535-11.611-7.623-17.046
		c-1.8-3.194-1.659-7.147,0.424-10.164l19.569-28.833l-25.233-23.892L209.543,64.23c-0.3,0.371-0.6,0.688-0.935,0.971
		c-2.859,2.559-7.023,3.159-10.499,1.518c-3.9-1.835-7.994-3.247-12.14-4.553c-3.882-1.235-6.564-4.8-6.705-8.876l-7.323-34.003
		h-34.727l-5.629,34.444l-0.371-0.071c-0.865,3.6-3.088,7.499-6.176,8.488c-4.288,1.376-8.488,2.841-12.493,4.764
		c-3.564,1.676-7.746,1.076-10.64-1.57c-0.265-0.229-0.529-0.512-0.776-0.794L74.465,44.52L49.39,68.554l17.84,29.168
		c0.212,0.282,0.441,0.565,0.618,0.865c2.012,3.017,2.17,6.899,0.406,10.058c-2.929,5.241-5.4,10.817-7.358,16.534
		c-1.147,3.37-4.059,5.841-7.588,6.405l-34.021,5.558l-0.018,34.744l33.403,7.341c3.406,0.759,6.158,3.3,7.164,6.652
		c1.941,6.547,4.553,12.864,7.746,18.775c1.623,3,1.535,6.635-0.229,9.546l-17.452,28.974l25.216,23.892l25.569-19.446
		c2.912-2.223,6.882-2.594,10.146-0.953c4.676,2.329,9.529,4.235,14.575,5.823c3.459,1.094,6.017,4.041,6.617,7.623L137.213,291.807
		z M156.553,214.184c-31.392,0-56.943-25.551-56.943-56.943c0-31.409,25.551-56.96,56.943-56.96c31.409,0,56.96,25.551,56.96,56.96
		C213.531,188.633,187.98,214.184,156.553,214.184z M156.553,119.55c-20.769,0-37.674,16.905-37.674,37.691
		c0,20.769,16.905,37.674,37.674,37.674c20.787,0,37.691-16.905,37.691-37.674C194.244,136.454,177.34,119.55,156.553,119.55z"/>
	<g>
	</g>
	<g>
	</g>
	<g>
	</g>
	<g>
	</g>
	<g>
	</g>
	<g>
	</g>
	<g>
	</g>
	<g>
	</g>
	<g>
	</g>
	<g>
	</g>
	<g>
	</g>
	<g>
	</g>
	<g>
	</g>
	<g>
	</g>
	<g>
	</g>
</g>
<g>
</g>
<g>
</g>
<g>
</g>
<g>
</g>
<g>
</g>
<g>
</g>
<g>
</g>
<g>
</g>
<g>
</g>
<g>
</g>
<g>
</g>
<g>
</g>
<g>
</g>
<g>
</g>
<g>
</g>
</svg>
