<svg xmlns="http://www.w3.org/2000/svg" xmlns:svg="http://www.w3.org/2000/svg" id="svg2" version="1.1" viewBox="0 0 53.333332 74.666664" preserveAspectRatio="xMidYMid meet" style="width: 64px; height: 64px; transform-origin: 50% 50%; transform: scaleX(1) scaleY(1) rotate(0deg);"><defs id="defs6"><clipPath clipPathUnits="userSpaceOnUse" id="clipPath364"><path d="M 0,64 H 64 V 0 H 0 Z" id="path362"/></clipPath></defs><g id="g356" transform="matrix(1.3333333,0,0,-1.3333333,-15.999733,79.999998)"><g id="g358"><g clip-path="url(#clipPath364)" id="g360"><g id="g366" transform="translate(46.7598,6)"><path d="m 0,0 h -0.697 v 2 c 0,0.553 -0.448,1 -1,1 -0.553,0 -1,-0.447 -1,-1 V 0 H -3.76 v 2 c 0,0.553 -0.448,1 -1,1 -0.552,0 -1,-0.447 -1,-1 V 0 h -1.062 v 2 c 0,0.553 -0.448,1 -1,1 -0.553,0 -1,-0.447 -1,-1 V 0 H -29.52 c -1.786,0 -3.24,1.453 -3.24,3.24 V 4 h 13 23 V 3.24 C 3.24,1.453 1.787,0 0,0 m -22.512,10.856 c -0.441,-10e-4 -0.852,0.026 -1.236,0.077 -0.007,10e-4 -0.016,0.002 -0.023,0.003 -0.373,0.05 -0.715,0.127 -1.031,0.228 -0.022,0.007 -0.043,0.014 -0.065,0.022 -0.303,0.1 -0.579,0.225 -0.827,0.374 -0.024,0.014 -0.046,0.031 -0.07,0.046 -0.243,0.155 -0.464,0.329 -0.649,0.532 -0.132,0.144 -0.245,0.301 -0.346,0.464 -0.034,0.054 -0.061,0.112 -0.092,0.168 -0.062,0.113 -0.12,0.228 -0.17,0.347 -0.028,0.068 -0.053,0.137 -0.078,0.206 -0.041,0.115 -0.077,0.232 -0.109,0.35 -0.019,0.072 -0.038,0.143 -0.053,0.217 -0.027,0.125 -0.049,0.251 -0.067,0.378 -0.009,0.067 -0.022,0.133 -0.029,0.202 -0.018,0.157 -0.028,0.316 -0.034,0.474 -0.002,0.036 -0.005,0.073 -0.006,0.109 -0.005,0.194 -0.002,0.388 0.006,0.579 0.003,0.058 0.009,0.115 0.012,0.173 0.006,0.101 0.015,0.201 0.025,0.3 1.284,0.204 3.923,0.787 6.974,2.402 0.418,0.222 0.83,0.456 1.236,0.702 -0.046,-0.085 -0.092,-0.172 -0.138,-0.258 l -0.002,-0.003 c -1.714,-3.234 -2.797,-5.95 -3.228,-8.092 m 5.778,8.579 c 0.019,0.035 0.039,0.07 0.059,0.104 0.11,0.193 0.216,0.379 0.319,0.557 0.013,0.023 0.027,0.047 0.041,0.07 0.227,0.391 0.435,0.741 0.62,1.047 0.032,0.053 0.062,0.102 0.092,0.152 0.054,0.089 0.106,0.174 0.155,0.253 0.034,0.056 0.068,0.111 0.1,0.163 0.035,0.056 0.067,0.109 0.098,0.158 0.089,0.145 0.167,0.27 0.223,0.358 l 0.102,0.164 c 0.01,0.018 0.011,0.038 0.021,0.056 0.046,0.082 0.077,0.165 0.097,0.254 0.004,0.019 0.008,0.037 0.011,0.055 0.017,0.104 0.019,0.205 0.002,0.31 -10e-4,0.01 -0.004,0.018 -0.006,0.028 -0.019,0.106 -0.054,0.204 -0.107,0.301 -0.007,0.012 -0.016,0.022 -0.023,0.034 -0.039,0.064 -0.069,0.133 -0.124,0.189 -0.025,0.026 -0.058,0.036 -0.084,0.057 -0.003,0.003 -0.005,0.007 -0.008,0.009 -0.008,0.008 -0.02,0.01 -0.029,0.017 -0.088,0.065 -0.178,0.121 -0.278,0.153 -0.021,0.008 -0.042,0.008 -0.063,0.013 -0.092,0.024 -0.184,0.044 -0.279,0.042 -0.061,-10e-4 -0.12,-0.021 -0.181,-0.034 -0.056,-0.011 -0.114,-0.012 -0.169,-0.034 -0.112,-0.044 -0.218,-0.108 -0.311,-0.194 -0.353,-0.324 -0.716,-0.636 -1.087,-0.937 -0.131,-0.106 -0.268,-0.205 -0.401,-0.308 -0.244,-0.191 -0.489,-0.381 -0.74,-0.561 -0.157,-0.112 -0.319,-0.218 -0.479,-0.326 -0.235,-0.16 -0.471,-0.32 -0.712,-0.471 -0.169,-0.107 -0.343,-0.208 -0.516,-0.309 -0.161,-0.096 -0.323,-0.188 -0.486,-0.28 -4.259,2.274 -6.883,6.623 -6.883,11.475 0,7.168 5.832,13 13,13 7.169,0 13,-5.832 13,-13 0,-7.168 -5.831,-13 -13,-13 -0.709,0 -1.418,0.059 -2.119,0.175 0.048,0.086 0.097,0.176 0.145,0.26 M -32.76,18 h 3.686 c -10e-4,-0.002 -10e-4,-0.005 -10e-4,-0.007 -0.057,-0.252 -0.113,-0.531 -0.162,-0.832 -0.309,-1.894 -0.326,-4.538 1.346,-6.372 0.157,-0.172 0.327,-0.33 0.506,-0.479 0.061,-0.051 0.128,-0.095 0.192,-0.144 0.122,-0.093 0.246,-0.185 0.377,-0.268 0.083,-0.051 0.171,-0.098 0.258,-0.147 0.121,-0.067 0.245,-0.134 0.373,-0.194 0.101,-0.047 0.205,-0.089 0.309,-0.131 0.125,-0.051 0.253,-0.098 0.384,-0.142 0.116,-0.038 0.233,-0.075 0.353,-0.108 0.13,-0.035 0.265,-0.068 0.402,-0.097 0.129,-0.028 0.258,-0.057 0.392,-0.079 0.138,-0.023 0.283,-0.041 0.427,-0.059 0.14,-0.016 0.278,-0.036 0.424,-0.047 0.161,-0.013 0.33,-0.017 0.498,-0.023 0.136,-0.005 0.267,-0.014 0.406,-0.015 h 0.011 c 0.121,0 0.251,0.011 0.375,0.014 0.175,0.005 0.347,0.006 0.527,0.019 0.006,-10e-4 0.011,-0.004 0.017,-0.004 0.009,0 0.016,0.005 0.024,0.005 0.01,10e-4 0.018,0 0.028,10e-4 0.27,0.014 0.552,0.038 0.848,0.071 V 6 h -12 z m 2.24,33.826 V 49 c 0,-0.553 0.448,-1 1,-1 h 13.76 c 0.552,0 1,0.447 1,1 v 3 H 0 c 1.787,0 3.24,-1.453 3.24,-3.24 V 6 h -22 v 4.12 c 0,0.027 -0.015,0.052 -0.017,0.079 -0.003,0.032 0.008,0.063 0.002,0.095 -0.009,0.05 -0.037,0.089 -0.054,0.136 -0.019,0.057 -0.035,0.112 -0.065,0.166 -0.041,0.074 -0.093,0.135 -0.151,0.197 -0.027,0.029 -0.041,0.067 -0.072,0.094 -0.011,0.009 -0.027,0.01 -0.038,0.019 -0.075,0.059 -0.161,0.096 -0.25,0.131 -0.039,0.015 -0.073,0.04 -0.113,0.05 -0.133,0.033 -0.273,0.044 -0.416,0.017 -0.17,-0.03 -0.321,-0.048 -0.481,-0.072 0.425,1.703 1.289,3.843 2.548,6.298 1.024,-0.217 2.065,-0.33 3.107,-0.33 8.271,0 15,6.729 15,15 0,8.271 -6.729,15 -15,15 -8.271,0 -15,-6.729 -15,-15 0,-5.131 2.546,-9.771 6.753,-12.529 -1.604,-0.684 -2.993,-1.057 -3.95,-1.255 0.079,0.275 0.137,0.442 0.138,0.446 0.041,0.114 0.053,0.234 0.052,0.353 -0.001,0.022 0,0.044 -0.002,0.066 -0.008,0.111 -0.036,0.22 -0.081,0.322 -0.008,0.02 -0.02,0.036 -0.029,0.055 -0.021,0.039 -0.038,0.08 -0.063,0.117 -0.036,0.05 -0.079,0.093 -0.122,0.135 -0.01,0.01 -0.017,0.021 -0.028,0.03 -0.088,0.08 -0.19,0.138 -0.299,0.182 -0.012,0.005 -0.019,0.015 -0.031,0.018 -0.01,0.004 -0.02,10e-4 -0.03,0.004 C -27.551,19.978 -27.653,20 -27.76,20 h -5 v 28.76 c 0,1.435 0.945,2.641 2.24,3.066 M -26.76,50 h -1.76 v 2 h 1.76 z m 8,2 h 2 v -2 h -2 z m -6,0 h 4 v -2 h -4 z M 0,54 h -15.76 -13.76 c -2.889,0 -5.24,-2.351 -5.24,-5.24 V 19 5 3.24 c 0,-2.889 2.351,-5.24 5.24,-5.24 H 0 c 2.89,0 5.24,2.351 5.24,5.24 V 48.76 C 5.24,51.649 2.89,54 0,54" id="path368" style="fill:#231f20;fill-opacity:1;fill-rule:nonzero;stroke:none"/></g><g id="g370" transform="translate(23,9)"><path d="m 0,0 h -6 c -0.552,0 -1,-0.447 -1,-1 0,-0.553 0.448,-1 1,-1 h 6 c 0.552,0 1,0.447 1,1 0,0.553 -0.448,1 -1,1" id="path372" style="fill:#231f20;fill-opacity:1;fill-rule:nonzero;stroke:none"/></g><g id="g374" transform="translate(16,15)"><path d="m 0,0 c -0.552,0 -1,-0.447 -1,-1 0,-0.553 0.448,-1 1,-1 0.552,0 1,0.447 1,1 0,0.553 -0.448,1 -1,1" id="path376" style="fill:#231f20;fill-opacity:1;fill-rule:nonzero;stroke:none"/></g><g id="g378" transform="translate(48,15)"><path d="m 0,0 c -0.552,0 -1,-0.447 -1,-1 0,-0.553 0.448,-1 1,-1 0.552,0 1,0.447 1,1 0,0.553 -0.448,1 -1,1" id="path380" style="fill:#231f20;fill-opacity:1;fill-rule:nonzero;stroke:none"/></g><g id="g382" transform="translate(48,54)"><path d="M 0,0 C 0.552,0 1,0.447 1,1 1,1.553 0.552,2 0,2 -0.552,2 -1,1.553 -1,1 -1,0.447 -0.552,0 0,0" id="path384" style="fill:#231f20;fill-opacity:1;fill-rule:nonzero;stroke:none"/></g><g id="g386" transform="translate(29,38)"><path d="M 0,0 C 0,1.654 1.346,3 3,3 4.654,3 6,1.654 6,0 6,-1.654 4.654,-3 3,-3 1.346,-3 0,-1.654 0,0 M 8,0 C 8,2.757 5.757,5 3,5 0.243,5 -2,2.757 -2,0 c 0,-2.757 2.243,-5 5,-5 2.757,0 5,2.243 5,5" id="path388" style="fill:#231f20;fill-opacity:1;fill-rule:nonzero;stroke:none"/></g></g></g></g></svg>